<?xml version="1.0" encoding="UTF-8"?>
<svg xmlns="http://www.w3.org/2000/svg" version="1.1" xmlns:xlink="http://www.w3.org/1999/xlink" viewBox="0 0 957.5 122">
  <defs>
    <style>
      .cls-1 {
        fill: #643b2c;
        isolation: isolate;
        opacity: .3;
      }

      .cls-2 {
        fill: #fff;
        stroke: #000;
        stroke-miterlimit: 10;
      }

      .cls-3 {
        display: none;
      }

      .cls-4 {
        fill: #553024;
      }

      .cls-5 {
        fill: url(#linear-gradient);
      }
    </style>
    <linearGradient id="linear-gradient" x1="478.7" y1="2.8" x2="478.7" y2="126.5" gradientTransform="translate(0 124.1) scale(1 -1)" gradientUnits="userSpaceOnUse">
      <stop offset="0" stop-color="#8b5f4c"/>
      <stop offset="0" stop-color="#8d624e"/>
      <stop offset=".4" stop-color="#9d795f"/>
      <stop offset=".7" stop-color="#a78769"/>
      <stop offset="1" stop-color="#ab8c6d"/>
    </linearGradient>
  </defs>
  <!-- Generator: Adobe Illustrator 28.7.5, SVG Export Plug-In . SVG Version: 1.2.0 Build 176)  -->
  <g>
    <g id="Layer_1">
      <g id="V2">
        <rect class="cls-5" x="-.8" y="-1" width="959.1" height="123.7"/>
        <g id="_x34_TH_PLANK" class="cls-3">
          <path class="cls-4" d="M958.2,14.5v2c-56.2-2.4-115.9-5-171.6-8.1,7,0,13.9-.1,20.8,0,7,.1,14,.5,20.9.8,11.8.5,23.6,1.1,35.4,1.7,10.3.5,20.6.9,30.9,1.3,12,.5,24,1.2,36,1.7,7.8.3,19.5.4,27.5.6h0Z"/>
          <path class="cls-4" d="M495.4,91.9h8.6c0-.2,18.9-1.2,22.2-.9,2.8.2,5.8-.3,8.7-.4,4.5-.2,9-.5,13.4-.3,5.5.2,10-2,15.6-1,.2,0,.5,0,1.1-.2-1.4-.1-2.4-.2-3.4-.3,2-.2,3.9-.2,5.8-.2s2.7-.1,4.3-.2c-.9-.4,11.4-.2,13.5-.2,0,0,6.5-.6,8.9-.5,1.9,0,8.7-.6,10-1.2,2,.5,5.2-.5,7,0,0-.2,3.3-.7,4.8-.5,4.9.8,5,.8,9.6-.7-2,.2.5,0,2.8.4,3.8.8,10.5-.4,12.5.2.1-.1.2-.2.4-.3-1.1-.8,14.9-2.1,16.2-1.2,1-.4,1.9-.8,3-1.2.4-.2,1.3-.4,1.4-.3,3.8,1.8,8-.5,11.9.3.2,0,.7-.1.7-.2h7.2c.3.7-7.4,2-7.3,2.8,0,.4-9.1.3-9.7,1.3,8.1-.9,31.9.2,36.5-.9-.9.3-1.9.6-3.2,1,10.1,0,19.7,0,29.3,0,2.9,0,5.8-.3,8.7-.3,2.2,0,5.5.5,6.4,0,1.9-1,3.8-.3,5.6-.6.8-.1,2,.5,3,.4,6.1-.3,12.4-.4,18.3-1.1,8.5-.9,17.2-1.2,25.8-1.4,2.4,0,4.9-.2,7.3-.3,6.6-.4,13.2-1,19.8-1.3,7.1-.4,14.3-.6,21.5-.9.5,0,.9,0,1.4,0,5.5-.7,11-1.4,15.9-2.1.8-.2,1.3-.4,1.8-.4,1.7,0,3.4.1,5.1.1,5.2,0,10-.4,14.9-1.6,3.8-.9,8.8-1,13.3-1.3,6.2-.4,12.4-.8,18.7-1.2,5.6-.4,11.2-.8,16.5-1.2-.7-.4-1.5-.8-1.9-1,8.4.2,20.6.2,29-.9v4c-9.4,1.1-22.5,2.1-31.7,3.2-1.3.2-2.2.8-3.8,1.3.1,0-.7-.5-1.3-.4-5.8.7-12.4,0-17.4,2.2-.5.2-1.7.2-2.5.2,0-.9-.4-.8-2.2-.5-3.6.6-7.4.9-11.1,1.4-1.1.2-2,.6-3,.9-4.7-.3-9.7-.2-14.5,0-3.8.2-7.4.8-11.2,1-4.6.2-9.6-.3-13.8.3-4.9.7-9.9.4-14.8,1.3-4.5.9-10,0-15,.9-3.1.6-7.2.2-10.8.3-7.5.2-15,.3-22.4.8-5.5.3-10.4-.8-16-.4-6.3.4-13,0-19.5,0-3.1,0-6.2,0-9.4,0-10.5.2-21.1.6-31.6.8-9.5.2-19,0-28.6.1-1.2,0-2.3.6-3.7.9-6.5-1.9-14.3-.7-21.8-.7,1.3,0-3.2.3-2.9.1-3.5,0-7,0-10.4,0-4.8.2-9.7.7-14.5.7-3.1,0-6,1.1-9.5.2-1.2-.3-3.5.3-5.4.3-12.2.4-24.5.8-36.7,1.3-5.2.2-10.4.3-15.3.9-4.9.7-19.1.8-19.8.8-4.6.3-6.8.6-11.4.9l-24.1-.4-3.8.8c-9.1.5-16.8-.4-25.9,0,0,0-19.4,0-24.5.4,0,0-15-.3-18.7,0s-37.4.4-37.4.4c0,0-52.8-.1-54.5-.5s-28.1.5-37,.5-11.8-.6-11.8-.6l-47.3.2h-84.2c0-.1-42.2-.5-42.2-.5h-47c0,0-29.7-.4-29.7-.4l-36.8.2.7-1.8s10.6.4,36.9.3c26.3-.1,32,.1,32,.1,0,0,43.8.5,44.2.1s43.4.5,43.4.5c0,0,76.4.6,83.2-.3,6.8-.9,52,.2,53,.2s42.8-.2,44.8-.4c2.1-.2,53.9.3,53.9.3l38.8-.3h18.2c0-.1,44.9-1.6,44.9-1.6h0Z"/>
          <path class="cls-4" d="M630.3,35.9l122.6,4.1c-1.8,0-3.5,0-5.3,0-3.3,0-6.7-.2-10-.2-3.5,0-7.9.7-10.5,0-5-1.4-10.2-.7-15.1-.9-6.1-.2-12.2-1.6-18.5-.3-3.8-2.1-7.6.8-11.8,0-2.7-.5-6.3,0-9.4,0,0-.2,0-.3,0-.4.5-.2.9-.3,2-.6-7.3-.4-13.8-1-20.4-1-7,0-12.9-1.5-22.9-1.2,0,0-76.1.3-58.6-1.4,17.5-1.7,18.1-3.2,19.4-3.1s56.4,2,56.4,2c2.8,0,5.6,0,8.4,0,2.3,0,5.3-.4,6.8.1,5.4,1.8,11.5,1.2,17.3,1.5,8.4.5,16.9.6,25.4.9,11.7.5,23.3,1.2,35,1.6,11.8.4,23.7.4,35.5.7,7.7.2,15.3,1.3,23.2.6.4,0,.9,0,1.4,0,9.9.8,19.9,1.7,29.8,2.4,13.9,1.1,27.8,2.1,41.6,3.2,8.5.7,17,1.7,25.5,2.3,7.9.6,15.9.8,23.9,1.3,1.1,0,2.1.6,3.2.8-.2,0-.3.2-.5.2,9.8.6,23.5,1.2,33.4,1.8v4.3c-4.3-.7-12.1-1.5-16.2-2-4.4-.5-9.2-.3-13.6-.8-6.8-.9-14.3.9-20.9-1.3-1.6-.5-4.4-1.8-7.3-.5-.4-.3-.7-.6-1.2-.8-1.8-.4-3.6-.9-5.5-1.2-1-.1-2.4.2-3.5.1-11.3-1.1-22.6-2.1-33.8-3.4-5.2-.6-10.4-.2-15.9-1-8.6-1.3-18.1-1.3-26.3-1.8-4.9-1.5-10.4-.5-14.9-1.4-.5-.1-1.3,0-3,0,1.8.3,2.6.4,3.3.5,0,.2-.2.3-.3.5-2.1-.2-4.2-.4-6.2-.7-.6,0-.8-.8-1.3-.8-5.7-.2-11.4-.4-17.1-.4-2.4,0-5.4,1-7.2.6M671.1,23.3h19.8c1.9,0,3.8-.2,5.6,0,12.4,1.7,25.2,1.3,37.8,1.6,11.2.3,22.5.3,33.8.5.6,0,1.2,0,1.8.1,14.4.5,28.9,1.1,43.3,1.6,8.7.3,17.5.5,26.2.8,11.5.4,23,.9,34.4,1.4,3.8.2,7.6.3,11.3.8,9,1.1,18.5,1,27.5,2.4,7.4,1.2,15.7.9,23.5,1.6,6,.5,15.1,1.2,21.9,2.1-.1.2.5,2.4-.4,3.2-.3.3-7.6,0-8.9,0,0,0,0-.1.1-.2.7,0,1.4-.2,2.3-.3-7-2-14.2-2-21.9-1.1.9-.3,1.8-.7,2.9-1.2-4.5-.2-8.4-.4-12.3-.6-1.2,0-2.2-.7-3.5-.7-6.9-.3-13.8-.3-20.6-.7-10.2-.6-20.4-1.5-30.2-2.2.1,0,.8-.3,1.9-.8-9.1-.4-17.4-.9-25.8-1.2-8-.3-16-.5-24-.6-4.5,0-9,.2-13.5.3-.4,0-.8-.2-1.2-.3-3.5-.3-7.1-.5-10.5-.9-2.7-.3-5.8,1.2-8.2-.4-2.7,1.1-4.5,0-6.8-.4-1.3-.2-3.3.4-5,.4-1.5,0-2.9-.4-4.6-.4-9.8-.2-19.5-.5-29.3-.9-15.8-.5-31.6-1.3-47.5-1.6-11.1-.3-37.2-1-37.2-1l-30.4-.6,12.5-1.9,18.8.8,16.3.5h0ZM688,14.5c4.1.2,8.6.6,13.1.8,6.9.3,13.8.5,20.7.6,3.9,0,7.9-.2,11.8-.2,12.5.1,25,.2,37.6.4,9.2.1,18.3.2,27.5.5,13.7.5,27.3,1.1,40.9,1.6,11,.4,22,.5,33.1.7,9.9.2,19.8.3,29.6.6,12.3.4,24.6,1.1,36.9,1.6,5,.2,14,.3,19,.5v2.7c-6.7-.5-17-1.1-23.4-1.4-12.2-.5-24.4-.9-36.6-1.3-13.7-.5-27.3-.8-41-1.3-12.7-.4-25.3-1-38-1.2-13.3-.2-27.5-1.8-40.9-1.5-8.9.2-19-.3-27.6-.3-7.7,0-13.8.6-21.8.5-10.5,0-20.9-.1-31.4-.2-4.8,0-18.2-.8-18.2-.8l-28.6.2,9.6-2.8s20.2.6,20.8.5l6.8-.2h0ZM659.6,10.5l7.1-2.3,28.1,1.7c0,0,.8.2,1.2.2,4,.4,8,.7,12,1.1,4.4.4,8.7.8,13.1,1.2,0,.1-.1.3-.2.4-12.7-.3-25.4-.6-36.8-.8l-24.5-1.5h0ZM672.3,4.6c0,.2,12.6,1.1,14,1.5,15.8.8,38.8,1.2,55,2.5,0,.2,0,.4-.2.5-22.5-.8-41.3-2.1-64.4-2.9l-12.6-1.1h-6.1s1.2-.6,1.2-.6h13.1c0,0,0,0,0,0Z"/>
          <path class="cls-4" d="M250.8,99.1h50.2s31,.3,31,.3l6.7.6,13.2-.6,77.5-.2,16.4-.6c5,.3,22.1.5,24.6,0,0,0,20.2-1.4,29-1l27.4-1.8c8.3,1.8,17-.9,25.5.2-.5-.5-.9-.8-1-.9,4.3-1.1,9.5,1.2,13.3-1.2.8.2,1.7.6,2.5.6,1.9-.1,3.8-.6,5.7-.6,2.7,0,5.5.3,8.1.2,4.2-.2,8.3-.7,12.4-1.1,1.7-.2,3.2-.5,4.9-.6,1.3,0,2.7,0,4,.2.6,0,1.2.4,1.7.3,3.1-.2,6.2-.5,9.7-.8-.4.5-.8.8-1.2,1.3,4.6-.1,8.8-.3,14-.4-1.9-.5-2.9-.7-5.1-1.3,3.7.1,6,.2,8.7.3-.7.4-1,.6-1.7,1h16.6c2.9-1.9,7.9-.6,11.4-1.4-1.3.4-2.7.9-4.2,1.4h5.4c2.8,0,5.7,0,8.5,0,2.9,0,8.2.2,8.3-.2,1.1-1.9,5.1,1.8,5-.7,2.2,0,4.3,0,6.5,0,5.6.2,11.2.4,17.4.6-.8-.8-1.2-1.1-1.4-1.3,2.5.4,4.8.9,7.1,1,3,.2,6.1,0,9.1,0,12.3-.3,24.6-.3,36.8-1.2,6.2-.5,12.5.1,18.9-.4,4.9-.4,10.2,0,15.2-.1,12.6-.4,25.2-.7,37.7-1.4,14.4-.8,28.7-2,43.1-2.7,5.7-.3,11.3-.1,16.7-1.3,2.3-.5,5.2-.4,7.9-.6,7.4-.5,14.8-1,22.1-1.7,8.4-.8,16.7-1.7,25-2.6.6,0,1-.7,1.2-.8,3.8,0,11.7-.5,15.6-.5v3.8l-11.8.5c-1.4,0-2.8,0-5,.1,1.3.4,1.8.5,2,.6-.8.3,15,.3,14.2.5,0,0,1.7.5,0,.5-4.5.2-18,.1-18.3.2h.1c-4.3-1.1-13.3.8-16.2.8-3.3,0-6.6.2-9.8.5-4.1.3-8.2.7-12.2,1.1-1.2.1-2.3.6-3.5.6-3.7.2-7.4,0-11,.3-3.4.2-6.6,1.1-10,1.2-11.6.4-23.2.6-34.8,1-8.4.3-16.8,1-25.2,1.3-15,.5-30,.8-45,1.2-2.6,0-5.3-.2-7.9-.1-13.3.3-26.6.7-39.9,1-11.7.2-23.5.2-35.2.3-12.7.2-25.3.4-38,.6-2.9,0-6.9-.2-8.6.5-2.5,1.1-4.3.4-6.7.4-9.7,0-21.3-.4-31-.4,0,0-26.7.8-31,1.5s-7.5.4-7.5.4c-8.1.8-13.7.9-22.1,1-12.3.2-20.8-.3-33.1,0l-33.9.8s-21.5.4-31,.7-58.9.7-58.9.7l-51.9.2-3.5-.6-31.6-.5-37.5.3-54.8-.4h-52.7c0,0-13.4-.6-13.4-.6l-4.2-.4.8.4s-4.8.1-5.2.1-43.1-.1-43.1-.1c0,0-.6.5-3.4,0-2.8-.4-24.3,0-24.3,0l-15.8-.9s-25.3-.2-27.5,0c-2.2.2-11.1.4-11.1.4l-5.8-.3v-.8s7.1.3,8.2.1,7-.8,9.3-.3c2.4.5,28.5-.1,28.5-.1l15.5.7,23.2-.4,4.4.5s45.3,0,45.6-.2,13,.4,19.3,1.1,51.6-.2,51.6-.2h43.8c0,0,0,.2,0,.2Z"/>
          <path class="cls-4" d="M510.6,100.2c1.5.3,3.1.5,5-.2.9-.3,3,0,4.6,0,4.5.2,9.3,1.1,13.2.6,5.1-.7,9.6,0,14.7,0,0-.4,20.1-1.8,31.1-1.1l22.6-1.4c10.4,0,20.6-.2,30.8,0,8.7.2,17.3-.9,25.9-.1.3,0,.8,0,.9,0,2.8-1.6,6.3-.5,9.6-.6,6.4,0,12.8-.4,19.3-.6,1.8,0,3.6-.4,5.3-.4,3.4,0,6.7.5,10,.5,18.3-.2,36.5-.4,54.8-.6,10.1-.1,20.2-.3,30.2-.4,1.9,0,3.9,0,5.8,0,7.5-.3,14.9-.6,22.3-1,11.9-.6,23.8-1.2,35.8-1.8,3-.2,6-.5,9.1-.5,7.3,0,14.6,0,22,0,1.5,0,3-.3,4.5-.5,3-.4,6.7-1.4,9-1,8.7,1.6,16.2-.4,24.2-1.1.6,0,1.1-.5,1.6-.8,2.7,1.1,6.1-1.8,8.6.3,7.7-.6,19.1-1.5,26.8-2v1.7c0,1.1-.5,1.7-1.5,2-.8.3-1.9.4-3.3.5s-3.2,0-5.1,0c-3,0-6.1.3-9.1.4-6.2.2-12.5.2-18.7.5-7.6.3-15.2.9-22.8,1.2-12.4.6-24.7,1.2-37.1,1.7-11.4.4-22.8.6-34.3.9-10.8.3-21.6.6-32.4.8-9,.2-18,.4-26.9.5-9.4.1-18.9.3-28.3.3-8.6,0-17.1-.1-25.7,0-9.2.2-18.4.9-27.7,1.1-10.1.3-20.2.2-30.4.4l-11.4-.2c-4.8-.4-10.8.6-15.7.6-6.6,0-14.3-.6-20.9-.4-4.2.1-15.5,1-17.4,1-5.5.2-10.9.5-16.4.8-.4,0-.8,0-2.3.2,2,.2,3,.3,4,.3-22.6.2-45.1.4-67.7.7l-11.1-.3c-10.1.2-21.2,1.2-31.3,1.4-3.6-.4-10.9-.2-10.9-.2l-12.1,1c-4-.1-8.3.3-12.5.2l-36.5-.5-34.8-.4h-36.7c0,0-9.1-.8-11.8-.7s-48,0-48,0h-36.9c0-.1-18.8.2-18.8.2l-43.9-.2h-30.8c0,0,1.2.6,1.2.6l-5.9-.9-34.5.2-3.8-.7s-7.6-.3-8.7-.2-9.8.4-9.8.4l-19-.4h-20s-13.7-.3-13.7-.3h-7.1c0,0-8.9-.4-8.9-.4v-.7c.1,0,20.8.4,20.8.4h42.5c0,0,16.5-.1,16.5-.1l12.1.3h10.6s1.7.6,1.7.6l10.1-.2,10.9.2,15.9-.3h23.9c0,.1,27.4,0,27.4,0h9c0,0,4,.6,4,.6l22-.5,25.5.3h37.3c0,.1,15.7-.2,15.7-.2l3.2.4,9.2.5,6.8-.2h6.8c0,0,25.7.4,25.7.4h25c0,0,7.4.7,9.5.3,2.2-.4,3.9-.2,3.9-.2l2,.5,29.6-.2h13.1s8.9-.4,8.9-.4l10-.7h10.2c0-.1,39.7-2.3,39.7-2.3h0Z"/>
          <path class="cls-4" d="M957.9,95.7h-8.5c-10.4.4-19.9,1.4-30.2,1.7-9.5.3-19,.6-28.4.9-11.3.4-22.6.9-34,1.2-10.9.3-21.9.5-32.8.7-17.9.3-35.9.7-53.8,1-13.4.2-26.9.3-40.3.4-8.6.1-17.3.2-25.9.4-5.1.1-10.2.5-15.3.8-.7,0-1.5-.1-2.2-.2-3.1-.1-6.2-.2-9.3-.3v.3c.7.1,1.4.2,1,.2-3.4,0-7.7,0-11.9,0-8.2.2-16.3.5-24.5.8-2.4,0-10.4,0-11.6,0-6.1,0-12.3-.1-18.4,0-14.1.5-28.2,1.3-42.4,1.6-5.2,0-10.3.7-15.7.3-6.1-.3-12.5.7-18.8.8-9.9,0-19.8-.2-29.7-.3l-6.4-.4-19.9.7-20.7.7s35,0,36.2,0,3.1-.3,3.1-.3c4.7.4,8.4.8,12.1,1.1,1.1,0,2.3-.2,3.5-.3,2.1,0,4.2-.2,6.4-.2,2.7,0,5.4,0,8.1-.2,7.1-.2,14.2-.4,21.3-.5,5.8,0,11.7,0,17.5,0,8.4-.2,16.7-.9,25-1,13.9-.3,27.8-.3,41.8-.5,10.9-.2,21.8-.3,32.7-.6,15.6-.4,31.2-.9,46.9-1.2,12.3-.3,24.6-.4,36.9-.4,8.4,0,16.8.4,25.2.3,5,0,10-.2,15-.3,5.7-.2,11.4-.3,17.1-.5,8.5-.2,17-.3,25.4-.6,15.6-.5,31.1-1.1,46.7-1.6,11-.3,22.1-.6,33.1-.9,14.1-.4,28.2-1,42.3-1.5,0,0,3.6,0,3.7.1,0,0-.2.6-.1.7-1.2.3-9.5.2-10.7.2-5.8.3-14.5.8-22.1,1-3.8,0-6.5.5-9.5.6-10.6.3-15.5.5-26.1.8-1.7,0-3.6-.3-5.4-.2-1.2,0-2.2.3-3.5.4-5.4,0-11,0-16,.2-2.9,0-3.6.3-6.3.4-5.5.2-12.8.4-18.6.4-3.3,0-6.5,0-9.3.4-5.7.8-11.9.3-17.8.4-1.6,0-12.1,0-20.8,0-3,0-6,.6-8.1.6-1.4,0-11.9.3-15.4.3-7,0-14,0-21,0-8.2,0-14.8-.2-23,0-4.4,0-10.7,0-15.1.3-1.7,0-3.5.4-5.3.5-9.8.2-35.5.9-35.5.9-7.9,0-14.5.3-23.5.3.7-.2.7-.2.6-.3-10.4,0-17.1.8-26.3.9-9,.1-19.2,0-28.3.4-8.7.3-24.3.9-24.3.9-.9,0-14.1.3-14.1.3l-11.8-.3s-13.4.6-14.6.6-7.7-.1-7.7-.1c0,0-2.1.4-3.2.4s-12.9-.4-14.2-.3-26.5,0-26.5,0c0,0-15.2-.2-19.5-.9s-16-.5-17-.5-50.1.4-50.1.4c0,0-35.7-.2-37.9-.5s-27.2,0-27.2,0c0,0-5.1,0-8.1-.2s-25.8-.1-30.2-.2-27.5.1-27.5.1c0,0-17.2.2-17.6.2s-4.9.3-4.9.3c0,0,3.5-.8,2-.8h-7.4l-6.1.4-26.4-.6-28.4.4h-16.8c0,0-30-.7-30-.7-.8,0-3.5.4-6.1.4-1,0-1.4-.3-2.6-.3-16,0-48.6-.7-51.3-.6-3.4.2-28.8,0-28.8,0-2.1,0-31.2,0-31.2,0v-2.2s4,.8,5.8.7,16.6-.1,24.3-.2c7.6,0,27.7,1.2,30.3,1,2.5-.3,49.3,0,49.3,0,4.2-.4,10.2-.2,15.3.5,3.8.6,22.7,0,24.5,0,1.8,0,13.1.4,16.2.4s20.3-.6,28.8-.6,22.7,1.3,26,.4,6.2-.7,6.2-.7c0,0,5.3.5,5.7.5s4.2-.5,4.2-.5l2.8.7s1.5,0,6.9.1,27.6-.1,27.6-.1c0,0,11,0,13.3,0s7.5.3,7.5.3c0,0,17.1,0,17.6.2s4,0,4,0c0,0,4.4.3,5.1.3s24.5,0,26.6,0,28.9,0,37.6.2,51.3-.6,51.3-.6c5.1.1,10.2-.4,15.2-.6l7-.2c12.4-.6,23.6-.6,34.7-1.5l9.9.2c4.4.2,10.7-.2,15.1-.1,3.4,0,6.8-.3,10.2-.3,9.5.2,19.1-.2,28.5-.3,9.2-.1,18.8.5,28.3-1.2,6.1-1.1,14-.3,21.1-.3,3.2,0,6.4-.2,9.6-.2,2.2,0,4.3,0,6.4,0,5.9.1,11.4-.3,17.3-.2l11.5-.2c30.7.9,60.1-1,90-1.7-.8,0-1.5-.1-2.2-.2,14.6,1.5,29.3.2,44.2.2-.5-.4-.9-.6-1.3-.9,5.8.2,11.4.6,17,.6,7.7,0,15.5-.4,23.2-.6,9-.3,18.1-.6,27.1-.8,16.2-.4,32.5-.8,48.7-1.3,6.9-.2,13.7-.5,20.5-.9,7.2-.4,33.3-1.1,37.6-.8v.8h0Z"/>
          <path class="cls-4" d="M421.1,111.1c-2.4.3-41.9-.2-44.5.2s-44.6.1-48.5-.5c-3.9-.7-45.2-.2-49.4-.6s-43.7,0-45.7-.1-38.9-.2-38.9-.2l-49.7.4c-6.4,1.3-3.8,0-3.8,0l-36.3-.6-19.2-.6-21.1.3s-19.7.3-20.4.3-5.7-.3-5.7-.3l-36.6.2v-1h17.2c0,0,26.5.4,26.5.4l18.7-.3h38.3s31.4.5,37.5.7c6.1.2,20.9,0,24-.1s58.3,0,61.5,0,52.3.5,52.3.5c0,0,46.6-.4,52.2.2s57.6.8,57.6.8h33.3s17.1.3,17.1.3l7.4.2,37,.2h23.2c0,0,26.5-.4,26.5-.4l33.9-1.3c6.7,1.2,13.3-.4,20.1,0,5,.3,10.3-.4,15.5-.6,8.4-.2,16.8-.2,25.2-.4,11.4-.2,22.8-.6,34.2-.9,2,0,7.3-.2,9.9-.5,1.2-.1.9-.4.9-.4,7.8.2,15.1,0,22.4-.1,2.1,0,4.2-.6,6.3-.6,14.1-.1,28.3-.1,42.4-.2,6.3,0,12.7,0,19,0,5.6,0,11.2-.2,16.9-.3,1.4.1,3.6.6,4.2.3,3-1.4,6.1-.4,9.1-.3,4.3,0,8.6.3,12.8.4,2,0,4.6.8,5.6-.8,1.5.3,3.1.8,4.7.8,4.8,0,9.5-.2,14.2-.4,8.7-.4,17.3-1.1,25.9-1.3,11.9-.4,23.9-.5,35.9-.7,10.3-.2,20.6-.5,31-.9,5.4-.2,10.8-.6,16.3-.8,5.3-.2,14.5-.2,20-.4v2.2c-5.4,0-14.4,0-19.5,0-5.7.1-11.3.4-17,.6-9.6.3-19.2.5-28.8.8-9.7.3-19.3.6-29,1-2.9,0-6-.8-8.9.4-.6.2-2.1,0-3.2,0-5,0-10,0-15,.1-2.1,0-13.9.5-17.7.7-7.3.2-14.5.8-21.7.8s-16.7-.6-25-.7c-8.6,0-17.2.2-25.9.2-16.5.2-32.9.4-49.4.6-8,0-15.9,1.1-24,.5-1.4,0-2.9.2-4.4.3-4.1.3-8.5,1.2-12.1.7-3.6-.5-11.7-.2-13.3-.1-4.8.1-9.6.6-14.5.7-8,.2-16.1.3-24.1.5h-21.8l-13.9.4s-42.6.8-63.8.8l-5.1.4c-2,0-6.4-.3-9.9-.3-9.5,0-22,.2-22,.2-11.1,0-47.1-1-47.1-1h0Z"/>
          <path class="cls-4" d="M756.1,109.3c20.7-.1,41.5-.2,62.2-.5,3.8,0,7.6-.8,11.4-1.2,2.8,0,5.6-.2,8.5-.2,10.5-.1,20.9-.2,31.3-.4,5.1,0,10.2-.6,15.3-.7,14.2-.4,28.4-.7,42.5-1,4.1,0,8.1-.2,12.2-.3,5,0,13.6,0,18.6,0v.9h-6.9c-8.8.3-17.5.4-26.2,1-4.1.3-13.5-.2-22.7,0-6.9.2-14.1,1-16.7,1.1-13,.2-45,.4-46.3.4-10.4.3-19.8,1.4-30.2,1.6-17.5.3-56-.2-56-.2-30.4.7-60.8,1.4-91.2,2.1l-24.7-.3c-8,0-19.5,1.1-33.3,1-21.9-.2-44.7,0-44.7,0l1.2-.8h43s19.9-.7,28.9-.8c5.3-.1,10.6-.3,15.9-.5,5.5-.1,11-.2,16.5-.3,9.3-.1,18.6-.2,27.8-.4,6.2-.1,12.5-.6,18.7-.4,5,.1,9.9-.9,14.8,0h30s0,0,0,0Z"/>
          <path class="cls-4" d="M662,112.6c29.8-.4,58.8-1.1,88.6-1.6l3.6-.2c16.3,1.1,32.2,1,48.1.6,14.2-.3,28.4-.9,42.9-.9-1.9-.3-2.5-.4-3.5-.6,1.2-.2,3.2.2,3.8,0,2.2.2,2.9,0,5,0,6.1-.2,12.1-.5,18.2-.7,5.8-.2,11.5-.3,17.3-.4,7.8-.2,15.7-.3,23.5-.5,7.8-.2,15.5-.5,23.2-.8,6.5-.2,14.1-.5,20.8-.7.6,0,3.8,0,4.3,0,0,.3,0,.6,0,.9-.5,0-3.6,0-4.3.1-6.1.4-20,1.2-20,1.2-28.9.8-57.4,1.2-86.3,2,0,0-20.2.7-21,.7s-21.6.2-21.6.2l-3.9.3-17-.2c-2.8,0-6.5-.2-9.3-.3-6.7-.2-12.7,0-19.2,0-10.4,0-41.5.7-43.3.7-1.8,0-24.9.1-24.9.1h-25.2c0-.1,0-.1,0-.1Z"/>
          <path class="cls-4" d="M844.9,112.7c29.6-.9,59.3-1.8,88.9-2.6l6.8-.3c4.6-.2,12.9-.4,17.4-.6.1.3-.1.6,0,.9-5.2,1.1-14.4.8-20,1-5.7.3-12,.2-17.7.5l-75.4,1.1h0Z"/>
          <path class="cls-4" d="M958.2,120.8l-18.9,1c-4.7,0-23.4,0-23.4,0-.4,0-33.1.9-38.4,1.1s-3.1.8-3.1.8h-12.3l.7-.3,11.8-1.7c0,0,0,.1,0,.2,21.1-.6,42.2-1.2,61.6-1.8l5.5-.4c-.7.5-1,.7-1.1.8,4.6-.2,13.2-.6,17.6-.8v1s0,0,0,0Z"/>
          <path class="cls-4" d="M140,90.3s177-4,181.7-3.7c4.7.3,69.4-2.9,69.4-2.9l22.9-1.1,2.9-1.1h29.1l4.1-.9s64.4-2,71.6-4.1,53.8-2.9,53.8-2.9l18.4-1.6s-21.9.1-24.8.3c-2.9.1-46,1.6-46,1.6l-7.8,2.2s-66.1,1.4-66,1.8-7.5,1.3-7.5,1.3l-26,.4s-79.9,3.7-93.9,4.2-180.7,5.3-182.9,5.3,1.1,1.4,1.1,1.4h0Z"/>
          <path class="cls-4" d="M178.6,83.9"/>
          <path class="cls-4" d="M1.4,81.6s8.7-.9,19.3-1.4c10.8-.6,23.6-.8,25.7-.7,4.3.1,66.7-.8,66.7-.8l3.8-1.2s-46.9-.2-55.1.3c-8.2.5-40-.7-47.9.7-7.9,1.4-12.6.3-12.6.3v2.9h0Z"/>
          <path class="cls-4" d="M546.4,59.4s54.6.3,54,0c-.4-.1,70.3-4.6,71.2-4.6s-66.7,5.6-70.2,5.9-51.5.8-52.5.4-2.5-1.8-2.5-1.8h0Z"/>
          <path class="cls-4" d="M252.4,66.4c7.6.4,20.5-1.3,22.8-1.5,2.3-.2,36.1-1.1,36.5-.9.4.2,22.4.2,22.8,0s13.8.3,14.8,0,17.3,0,19.7.4c2.4.4,46.7,4.6,46.7,4.6l-1,.9s-45.9-3.2-46.8-3.2-19.1-.4-19.5-.4-5.6-1.4-12.7-1.4c0,0-3.3,1-13.5,1.7-10.2.6-41.3,0-41.3,0,0,0-3.8-.8-10.6.5-6.7,1.3-31.6,2.4-37.1,3.5s-68,4.2-68.6,4.1-26.7.6-28.8,0-6.5-2.7-6.5-2.7l9.4,1s3.4-.3,5.9-.3,18.1-.4,20.2-.9,28.6-2,29.4-1.9,35.8-1.1,36.1-1.6,21.9-2,21.9-2h0Z"/>
          <path class="cls-4" d="M1.4,64.6c22.4-.4,47.8,2.5,47.8,2.5l16.5.6s-15.6.9-19.1,0c-3.5-.9-45.2-1.6-45.2-1.6,0,0,0-1.5,0-1.5Z"/>
          <path class="cls-4" d="M296.6,38.3c1.8,4-42.8,7.3-42.8,7.3l-30.1.5s1,.8,0,.8-61,1.2-61.6,1-16.9.7-20.1.9c-3.2.1-55.4,1.5-55.4,1.5L1.4,45.5v-2.4l84,5.1,57-1.5,19.3-.7s45.4-.5,46.8-.5,13.6-1.6,14.4-1.3,26.9,0,30.9-.7,39.5-1.9,39.5-5.2,3.2,0,3.2,0h0Z"/>
          <path class="cls-4" d="M1.4,32.5s59.8,2.8,63.5,2.8,85.5.8,85.5.8c0,0,130.5-.7,136.6-1.2s29.2-3.8,30.1-4-26.7,3.1-28.2,2.6-171,0-171,0c0,0-61.3-.2-67.9-.9-6.6-.7-48.6-.1-48.6-.1h0Z"/>
          <path class="cls-4" d="M1.4,22.8s21.4.4,24.9.7,58.2.7,75.8,2c17.6,1.3,107.1.1,112.5,0s21.2-.3,21.2-.3l1.4-.8h25.7l31.1-.9,41.4-.8h-54.1s-69.1,1.3-81.1,1.1c-12.1-.3-86.1.3-88.8-.3s-31.7-.9-39.4-.8c-7.6.1-69.2-1.8-70.8-1.6-1.5.1,0,1.6,0,1.6h0Z"/>
          <path class="cls-4" d="M1.3,15.4s66.7-.4,69.2,0,47.1.9,47.1.9h91.6s43.7-.9,45-1.1,5.5-.6,5.5-.6l-3-1.3s.2,1.6-38.2,1.6c-38.5,0-61.6,0-61.6,0,0,0-34.2.9-37.7,0s-45.9,0-45.9,0c0,0-12.8-.9-15.2-.9s-55.7.1-56.7.1,0,1.3,0,1.3h0Z"/>
          <path class="cls-4" d="M.9,7.9h28l34.3.4,22.1,1.1h77.9s44.4,0,46.5-.8c2.1-.7,39.6,0,39.6,0l-1.4-.8h21l-1.6-1.2-21.5.5-.4.9-35.6-.4-3.6.4-90.7.8-.4-1.1s-48.7,0-50.6-.3-49.5-.3-49.5-.3H.9c0,0,0,.7,0,.7h0Z"/>
          <path class="cls-4" d="M4.9,123.8c7.1-1.5,37.4-.2,38.8-.5s19.2-.8,19.2-.8l43-.7-30.1,1.4s92.4,1,95.9.3,49.7-2.3,49.7-2.3c0,0,50,.1,51.1,0,1.2-.2,14.3.6,14.3.6l-12.1,1.2s22-.8,22.9-.8,75.4-.3,78.8.2c3.3.5,57.8.6,60.6.6,2.8,0,44-.8,44-.8l23.5-.4-7.7.8s8.5,1.2,14.2.5,36.1-1.1,36.1-1.1c1.3,0,8.7.7,10.5.7s49.7,0,51,0,0-.7-.5-.7-26.4-.4-26.4-.4h-22.7v-.4h22.6l5-.3c4.4,0,22.8.3,23.7.7s8.9.7,12.3.6,14.2-.6,14.2-.6c3.7-.2,8.9-.6,10.1-.5,5.3.5,12.3.3,14.7.7s9.1-.3,15.1,0,9.8,0,14.6-.8c4.8-.8,17.7-.8,17.7-.8l34.3-.2c5,.1,17.8,0,17.8,0h26.9l7.1.3h23.6c6.4,0,12.8-.1,19.2-.2h34.8s12.2-.5,14.4-.4-15.6.9-16.2.9l-17.7.5c-17.6.4-75.8.8-86.6.8l-6.2.9-61.6.9,23.2-.9c10.9-.2,21.8-.5,32.7-.7l2.5-.5c-10.9,0-25.4-.3-36.3-.3,0,0-25.3.5-27.5.6-2.2.1-10.7.7-18.1.7s-14.9.3-15.7,0-10.1-.7-14.4-.8-6.9.5-7.8.8-15.8.8-19,1.1c-3.2.3-14.2,0-14.2,0h-57.1s-2.5-.9-3.5-.9-7.3,0-7.3,0c0,0-7.2.6-8,.8l-351.7.2H4.9Z"/>
        </g>
        <g id="screws">
          <g>
            <path class="cls-2" d="M224.5,25.5c1.8,2.8,1.1,6.4-1.7,8.2-2.8,1.8-6.5,1-8.3-1.7s-1.1-6.4,1.7-8.2,6.5-1,8.3,1.7Z"/>
            <path class="cls-2" d="M226,85.2c1.8,2.8,1.1,6.4-1.7,8.2s-6.5,1.1-8.3-1.7-1.1-6.4,1.7-8.2,6.5-1.1,8.3,1.7Z"/>
            <path class="cls-2" d="M734.5,97.8c-1.8-2.8-1.1-6.4,1.7-8.2s6.5-1.1,8.3,1.7,1.1,6.4-1.7,8.2-6.5,1.1-8.3-1.7Z"/>
            <path class="cls-2" d="M733,38.2c-1.8-2.8-1.1-6.4,1.7-8.2s6.5-1,8.3,1.7,1.1,6.4-1.7,8.2-6.5,1-8.3-1.7Z"/>
          </g>
          <g>
            <polygon points="218.5 27.7 218.5 24.9 219.4 24.9 219.4 27.5 222.4 27.5 222.4 28.9 220.4 28.9 220.4 31.8 219.6 31.8 219.6 29.5 216.3 29.5 216.3 27.9 218.5 27.7"/>
            <polygon points="221.7 87.4 221.7 84.5 220.7 84.5 220.7 87.2 217.8 87.2 217.8 88.6 220.8 88.7 220.8 91 222 91 222 88.7 223.8 88.5 223.8 87.4 221.7 87.4"/>
            <polygon points="737.3 36 737.3 38.8 738.3 38.8 738.3 36.2 741.2 36.2 741.2 34.7 738.2 34.7 738.2 32.3 737 32.3 737 34.6 735.2 34.9 735.2 35.9 737.3 36"/>
            <polygon points="740.5 95.7 740.5 98.5 739.6 98.5 739.6 95.9 736.7 95.9 736.7 94.4 738.6 94.4 738.6 91.6 739.4 91.6 739.4 93.9 742.7 93.9 742.7 95.5 740.5 95.7"/>
          </g>
        </g>
        <g>
          <path class="cls-1" d="M55.1,4.5c3.1,0,6.2,0,9.3,0,8.1,0,16.2,0,24.2,0,17.6.2,32.7,1.2,46,2.7,2.6.3,6,.5,9,.7.4,0,.9-.2,1.3-.2-2.9-.4-5.6-.8-8.8-1.2-4.3-.4-9.5-.8-13.6-1.2-6.7-.8-14.9-1.2-23.3-1.4-11.5-.3-23.2-.4-35-.3-10.5.1-21,0-31.5.1-2,0-4.1,0-6.1,0-8.8.1-17.5.2-26.3.4v.8c4,0,8,0,12.1-.1,14.2-.1,28.4-.2,42.6-.4h0Z"/>
          <path class="cls-1" d="M69.1,114.4c-11.1-.5-22.6-2-35.1.7,34.9,2.4,68.6,4.7,102.3,6.9,0-1,24,.2,24-.8-7.8-.4-39.7-2.9-47.5-3.5-14.6-1.1-29-2.7-43.7-3.3h0Z"/>
          <path class="cls-1" d="M48.5,108c8.1-.3,16.3-.2,24.4,0,13,.2,26,.4,39,.8,15.9.6,31.8,1.4,47.7,2,17.3.7,34.6,1.2,51.9,1.7,14,.4,28,.5,42,.9,9,.2,18,.5,27,.9,12.9.5,25.7,1,38.6,1.6,8.5.4,16.9.9,25.4,1.4,3.1.2,6.2.4,9.3.6l66.4-2.1c2,0,10.7.2,12.5.2,3.9,0,6.6-.3,10.6-.2,2.3,0,7.8.2,10.1.2,3.2,0,9.1-.4,12.3-.4,7.7,0,11.2,0,18.9,0,6.4,0,12.8,0,19.2.3,16.4.7,30.7-.2,47.2-.5,18.9-.4,37.8-.4,56.7-.3,1,0,2,0,3,0,.3,0,.6,0,.9,0,.7,0,1.5,0,2.2,0,.3,0,.6,0,.9,0,1,0,2,0,2.9,0h.2c1,0,1.9,0,2.8,0,.3,0,.7,0,1,0,.7,0,1.4,0,2.1,0,.3,0,.7,0,1,0,.8,0,1.6,0,2.4,0,.6,0,1.1,0,1.7,0,.5,0,1,0,1.5,0,1.3,0,2.5,0,3.8,0,1,0,2,0,3,0,3,0,6,.2,9,.3.4,0,.8,0,1.1,0,7.8.1,15.6,0,23.4.2,17.9.5,35.7,1.2,53.5,1.8,9.7.3,19.4.7,29.2,1,3.9.1,6.5,1.1,9,2.1-.2.2-.4.5-.6.8-3.4,0-6.9-.2-10.3-.2-9.1,0-18.3.3-27.4.1-9.1-.1-18.1-.8-27.2-1-15.1-.3-30.3-.4-45.4-.7-6-.1-12-1-18-1.1-15-.2-30-.2-44.9-.2-6.1,0-12.3,0-18.4,0-.6,0-1.3,0-1.8,0-8.7,1.2-17.5.3-26.2.2-7.8,0-15.7.6-23.6.5-6.5,0-12.7.2-19.1.7-5.3.4-11-.5-16.6-.5-3.4,0-6.7.6-10.1.9-1.1,0-2.3.1-3.5.1-.8,0-1.6-.3-2.2-.2-7.5,1.4-14.8,0-22.2,0l-106.5-1.5c-4.6-.3-9.3-.6-13.9-.8-8.2-.4-16.5-.3-24.7-.5-13.8-.5-27.5-1.2-41.3-1.6-9.1-.3-18.3-.2-27.5-.5-16.2-.5-32.4-1.1-48.6-1.6-10.4-.3-20.8-.6-31.2-1-10.4-.5-20.8-1.4-31.3-1.8-11.5-.5-23-.7-34.6-.9-7.9-.1-15.9,0-23.8,0-8.5,0-17,.2-25.4.4-6.7.2-13.3.8-19.9,1.2-5.2.2-10.6.3-15.8.5v-2.1c1.4,0,2.9,0,4.3,0,14.6-.7,29.2-1.5,43.8-2h0Z"/>
          <path class="cls-1" d="M799.5,15.2c-35.4.2-70.9,1.2-106.3,1.8-1.4,0-2.8,0-4.1-.2-4.4-.4-19.4-.2-22.6.3-3.8.6-8.2.4-12.4.4-40.7,0-81.5-.2-122.2-.2-12.7,0-25.4.4-38,.3-20.9-.1-41.8-.5-62.6-.9-15.3-.3-30.5-1-45.8-1.5l-127.6-1.3c-30.8-1.5-118.5-5.9-149.4-7.4,0,.2,56.8,3.5,56.8,3.7,1.2,0,2.4,0,3.5.1,8.8.4,17.6.9,26.4,1.4,15.9.8,31.8,1.7,47.7,2.5,5.5.3,11,.5,16.5.7l88.9,3.1c5.1,0,9.8,0,14.5,0,18.7.3,37.4.7,56.1.9,24.9.3,49.8.7,74.8.8,19.2.1,38.4,0,57.6-.1,23.8-.1,47.7-.5,71.5-.6,20-.1,39.9.1,59.9-.2,2.7,0,5.3,0,8-.1,1,0,1.9,0,2.9,0,1.7,0,3.5,0,5.2,0,1.2,0,2.3,0,3.5,0,1.5,0,3,0,4.5,0,1.3,0,2.6,0,4,0,1.4,0,2.7,0,4.1,0,1.4,0,2.8,0,4.2,0,1.3,0,2.6,0,3.9,0,1.5,0,3,0,4.5,0,1.2,0,2.3,0,3.4,0,1.8,0,3.6,0,5.5-.1.8,0,1.7,0,2.5,0,2.9,0,5.8-.1,8.8-.2h.1c3.5,0,7-.1,10.5-.2,4.3,0,8.5-.2,12.8-.2h.2c3.9,0,7.8-.1,11.6-.2.5,0,1.1,0,1.6,0,3.8,0,7.6-.1,11.3-.2.7,0,1.5,0,2.2,0,3.9,0,7.8-.1,11.7-.2,19.5-.3,39,0,58.6,0s35.8,0,52.6,0c9.6,0,19.2,0,28.8,0,1.7,0,5.4-.2,7.1-.4v-.7c-1.5-.1-5.1-.4-6.6-.4-49.4,0-100.9-.2-150.3,0h0Z"/>
          <path class="cls-1" d="M875.1,8.1c-22.3-.1-44.6-.5-66.9-.5s-37.2.5-55.7.6c-19.8.1-39.6,0-59.4.2-15.6.1-31.3.6-46.9.7-14.4,0-28.8-.2-43.2-.3-19.2,0-38.4,0-57.7,0-13.6,0-27.2-.4-40.8-.5-2.8,0-5.6.1-8.3.1-20.9,0-41.8-.2-62.6-.2-16.6,0-54,.4-54,.4,0,0-46.5-.7-50.1-.7s-58.9-2.2-70.2-2.2-16.7,1.7-16.7,1.7c0,0,14.7-.4,21-.7s61.5,3,61.5,3c69.5.2,139.4.8,208.9.8,69.8,0,139.7-.1,209.5-.9,69.5-.8,143.5,1.6,212.9-1,0-.2,0-.4.1-.7-1.1-.1-4.5-.4-5.5-.3-15.2.2-32.3.4-47.5.5-9.4,0-18.9.2-28.3.1h0Z"/>
          <path class="cls-1" d="M3.8,106.2c21.4.4,46.3.7,67.7.9,10.8.1,21.6.1,32.5.3,15.2.2,30.4.7,45.6.7,24.8,0,49.5-.2,74.2-.4,21.3-.1,42.5-.3,63.8-.3h44.4c16.7,0,33.4,0,50.2.1,10.6,0,21.2-.2,31.9,0,10.9,0,21.8.2,32.6.6,4.5.2,15.9,0,20.4.5,0,0,2.4-3-34.3-3.4l-24.2-.6c-1.3,0-2.6.2-4,.2-10,0-20.1.3-30.1-.3-5.7-.3-10.8.8-16.2.6-7.1-.2-14.1-.5-21.2-.7-4,0-7.9.1-11.9.2-19.5.2-39,.5-58.5.6-11.9,0-23.7-.3-35.6-.2-16.3.2-32.7,1-49,.9-3.9,0-7.7,0-11.6,0-1.2,0-2.4,0-3.5,0-2.9,0-5.8,0-8.6,0-1.1,0-2.2,0-3.4,0-3.6,0-7.1,0-10.6,0-1.7,0-3.5,0-5.2,0-1.9,0-3.9,0-5.8,0-2.1,0-4.2,0-6.3,0-1.1,0-2.1,0-3.2,0-5.3,0-10.6,0-15.9-.1v-.3c-2.1,0-4.1.1-6.2.2-8,0-16.1-.2-24.1-.2-22.7-.2-47-.8-69.7-1.2-.9,0-3.7,0-4.6,0-1.5,0-4-.3-3.4,1.2.2.5,2.4,1.1,3.8,1.1h0Z"/>
          <path class="cls-1" d="M956.3,27.7c-106.8-1.2-217-2.3-323.4-3.5l4.1,1.4,142.8,1.7,116.5,1.3,56,.2s4.4-.2,5.2-.5c.6-.2-1.3-.4-1.1-.7h0Z"/>
          <path class="cls-1" d="M362.2,104.3c-.5.1-.9.2-.5.3-10.9-.2-29.5-.8-40.4-1.1-8.9-.2-17.8-.6-26.6-.9-2.2,0-4.4-.2-6.6-.3l-6.4-.5c-2.5,0-4.6,0-6.7,0-7.5,0-14.9-.2-22.4-.3-7.1,0-14.3.3-21.4.2-13.1,0-26.2-.2-39.3-.4-4.6,0-9.2-.2-13.8-.4-12.5-.5-24.9-1.2-37.4-1.6-8.9-.3-17.8-.2-26.6-.2-18.7,0-37.4,0-56.1.2-5.2,0-10.4.2-15.6.4-14,.5-28,1.1-42,1.6v-1.7c.7.1,1.4.4,2.1.3,7.8-.4,15.5-.9,23.3-1.2,14.2-.4,28.5-.7,42.8-.8,14.5-.1,29-.1,43.5,0,10.8,0,21.6.6,32.4.8,8.9.2,17.9.2,26.9.5,13.5.3,26.9.9,40.4,1.2,8.1.2,16.3,0,24.5,0,15.1.1,30.3.3,45.4.4.2,0,.5,0,.7.1l11.5.4c5.9.2,11.7,0,17.5,1,3.5.6,7.9,0,11.9.2,8.3.2,16.7.4,25,.7.9,0,10.9.2,13.5.4h0c6.1.2,12.2.4,18.3.6h-16.6c-.4,0-.9,0-1.3,0h0Z"/>
          <path class="cls-1" d="M603.2,112.6c34.8,0,69.7,0,104.6,0,24.3,0,48.6.4,72.9.3,17,0,34-.9,51-.9,3.5,0,7.1,0,10.6,0h.6c3.4,0,6.8,0,10.1,0h0c17.8-.4,35.6,0,53.3.3,2.7,0,7.3,0,10,0,11.3,0,22.6.4,33.9.6.2,0,2,0,2.2,0h0c.2,0,.3,0,.5,0h0c.2,0,.3,0,.5,0h0c.2,0,.3,0,.5,0h0c.2,0,.3,0,.4,0h0c.1,0,.3,0,.4,0h0c.1,0,.5,0,.6,0h0c.1,0,.2,0,.3,0,.3,0,.6,0,.9,0-.1,0-.4.2-.4.2,0,0,0,0,0,0,0,0,0,0,0,0,0,0,0,0,0,0,0,0,0,0,0,0,0,0,0,0,0,.1h0v.2s0,0,0,.1h0c0,0,0,.1,0,.2,0,0,0,0,0,0,0,0,0,0,0,.1,0,0,0,0,0,0,0,0,0,.1-.1.2-.4.5-4.5,1-5.8,1-6-.1-12-.5-18-.7-16-.5-34.1-1.3-50.1-1.3-31.5.1-63.1.8-94.7,1.1-20.4.2-40.9,0-61.3,0-25.3-.2-50.7-.6-76-.7-25.7,0-51.3.3-77,.5-12.5,0-25,.2-37.5.3-3.2,0-6.5-.4-9.7-.4l11.9-2.2c21.8,0,43.5,0,65.2,0h0Z"/>
          <path class="cls-1" d="M381,99.7c-.3,0-.6,0-.9,0h2.9c-.2,0-1.1,0-1.9,0h0Z"/>
          <path class="cls-1" d="M564.4,107.6c32.8,0,65.6.3,98.4-.2,23.9-.3,47.6-1.7,71.4-2.5,12.1-.4,24.3-.6,36.5-1,22.9-.6,45.8-1.4,68.8-1.8,34.2-.5,73.7-.6,107.9-.7h1.3c0,0,.2,0,.3,0h0c.4,0,.8,0,1.2,0h0c0,0,.2,0,.3,0h0c0,0,.2,0,.3,0h0c.2,0,.4,0,.5,0h1.4c.2,0,.4,0,.7,0h.4s.1,0,.2,0h.1s0,0,.2,0c0,0,0,0,.1,0,0,0,0,0,.2,0,0,0,0,0,.1,0,0,0,.2,0,.2,0,0,0,0,0,.1,0,0,0,0,0,.1,0,0,0,0,0,0,0s0,0,.1,0c0,0,0,0,0,0s0,0,0,0c0,0,0,0,0,0s0,0,0,0,0,0,0,0,0,0,0,0h.7c-.1,0-.3,0-.5.1h0c0,0,.2.2.2.2,0,0,0,0,0,0,0,0,0,0,0,.1,0,0,0,0,0,.2.2,1.8-5.5,1.1-8.6,1.1-35.4.2-76.1,0-111.4.6-29.8.4-59.4,1.7-89.1,2.6-8.5.3-16.9.9-25.3,1.8,1.7,0,3.4.3,5,.2,12.6-.1,25.2-.3,37.8-.4,5.6,0,11.2,0,16.8-.1,25.5-.5,51.1-1.2,76.6-1.5,20.9-.2,44.5.2,65.5.2,8,0,18.5-.2,26.4-.3,1.2,0,2.7-.1,3.5,0,.1,0,.3,0,.4,0,0,0,0,0,0,0,.1,0,.2,0,.4.1,0,0,0,0,0,0,.1,0,.2,0,.4.1h0c.1,0,.2,0,.4.1h1.3c.1.2.3.4.4.6-.2,0-.5,0-.7,0h0c0,0,0,0,0,.1.1.3-1.6.9-2.7,1-2.3.2-7.2.1-9.6.1-33.6,0-69.8-.2-103.3,0-23.4.2-46.7,1.1-70.1,1.3-25.2.3-50.3.3-75.5.2-36.6-.2-73.2-.7-109.8-.9-27.8-.1-55.7,0-83.5,0-17.4,0-34.7,0-52,0l11.1-2.7,12.1.3c6.2.2,10.9.4,15.6.4,25.3,0,50.7,0,76,0h0Z"/>
          <path class="cls-1" d="M244,20c-3.4,0-6.8,0-10.1,0-16.5-.1-32.9-.3-49.4-.4-11.6-.1-23.2-.3-34.8-.4-20.8-.3-41.6-.8-62.4-.8-14.7,0-29.5.4-44.2.8-11.6.3-23.2.8-34.8,1.3-2.4,0-4.8.3-7.2.4v-1.3l102.6-2.4,220.8,3.4,12.6,3.2s-14.7-.7-16.9-1.4c-2.2-.7-76.1-2.3-76.1-2.3h0Z"/>
          <path class="cls-1" d="M122.9,11.7c4.7.2,9.5.4,13.9,1.1l-19.8-1.3c2,0,3.9.1,5.9.2Z"/>
          <path class="cls-1" d="M942.5,23.7c-4.7.2-9.5.4-13.9,1.1l19.8-1.3c-2,0-3.9.1-5.9.2Z"/>
          <path class="cls-1" d="M94.6,10.8c-6,0-88.2-.7-94.2-.7v.4c5.9.1,85.6,1.6,91.6,1.7,0-.3,2.6-1.2,2.6-1.4h0Z"/>
        </g>
      </g>
    </g>
  </g>
</svg>